<?xml version="1.0" encoding="utf-8"?>
<!-- Generator: Adobe Illustrator 21.0.0, SVG Export Plug-In . SVG Version: 6.00 Build 0)  -->
<svg version="1.1" id="Layer_1" xmlns="http://www.w3.org/2000/svg" xmlns:xlink="http://www.w3.org/1999/xlink" x="0px" y="0px"
	 viewBox="0 0 16 16" style="enable-background:new 0 0 16 16;" xml:space="preserve">
<style type="text/css">
	.st0{fill:url(#SVGID_1_);}
</style>
<linearGradient id="SVGID_1_" gradientUnits="userSpaceOnUse" x1="15.8778" y1="588.6234" x2="0.7651" y2="572.4246" gradientTransform="matrix(1 0 0 1 0 -572)">
	<stop  offset="0" style="stop-color:#1F6F1F"/>
	<stop  offset="1" style="stop-color:#12CEB2"/>
</linearGradient>
<path class="st0" d="M15.3823,5.7982L14.125,4.5408c-0.3853-0.3853-0.8973-0.597-1.4398-0.5963h-0.1946V3.7406
	c0-0.3499-0.0882-0.6882-0.2567-0.99c-0.0934-0.1731-0.2111-0.3312-0.3517-0.4718l-1.2576-1.2576
	c-0.384-0.384-0.8945-0.5957-1.4398-0.5964h-5.804c-0.5438,0-1.0552,0.2118-1.4399,0.5965L0.686,2.2763
	C0.3044,2.6566,0.0918,3.1629,0.0874,3.7054L0.0531,9.1387c-0.0044,0.542,0.213,1.0726,0.5962,1.4558l1.2574,1.2574
	c0.3845,0.3845,0.8958,0.5963,1.4398,0.5964h0.2289v0.1992c-0.0001,0.35,0.0882,0.6884,0.2568,0.9904
	c0.0934,0.1732,0.2111,0.3312,0.3516,0.4716l0.0025,0.0025l1.2552,1.2551c0.3846,0.3846,0.8959,0.5964,1.4398,0.5964h5.8018
	c0.5446,0.0007,1.0568-0.2111,1.442-0.5964l1.2572-1.2573c0.3853-0.3853,0.597-0.8973,0.5964-1.4398V7.238
	C15.9787,6.6942,15.7669,6.1828,15.3823,5.7982z M3.3514,10.6236c-0.0547,0-0.1063-0.0214-0.145-0.0601L2.5779,9.9348L1.9493,9.3062
	C1.9397,9.2967,1.931,9.2861,1.9237,9.275c-0.015-0.0223-0.0252-0.0471-0.0306-0.0737c-0.0026-0.0131-0.0039-0.0266-0.0039-0.04
	V3.729c0-0.0547,0.0214-0.1063,0.0601-0.145l1.2573-1.2574C3.2202,2.313,3.2361,2.3015,3.2551,2.2913
	c0.0302-0.016,0.0635-0.0246,0.0963-0.0246h5.8041c0.0308,0,0.0611,0.0071,0.0899,0.0212c0.0211,0.0104,0.0397,0.0234,0.0551,0.0388
	l1.2572,1.2571c0.0173,0.0173,0.0313,0.0372,0.0415,0.0594c0.0055,0.0094,0.0091,0.0178,0.0117,0.0239l0.0015,0.0034
	c0.0028,0.0063,0.007,0.016,0.0102,0.028c0.0033,0.0122,0.0077,0.031,0.0077,0.0529v0.2665c0,0.113-0.092,0.205-0.205,0.205h-1.006
	c-0.0547,0-0.1063-0.0214-0.145-0.0601L8.706,3.5946H3.801L3.5925,3.8031L3.305,4.0905v4.7217l0.496,0.496h4.9043l0.5683-0.5756
	C9.2772,8.729,9.2809,8.7257,9.285,8.7225C9.2993,8.71,9.3151,8.6997,9.3319,8.6917c0.0281-0.0133,0.0574-0.02,0.0874-0.02h1.0058
	c0.0653,0,0.1273,0.0317,0.1658,0.0849c0.0257,0.0354,0.0392,0.077,0.0392,0.1202v0.2858c0,0.0547-0.0214,0.1063-0.0601,0.145
	L9.9415,9.9363L9.3129,10.565l-0.0001,0.0001c-0.0106,0.0106-0.0224,0.0199-0.0364,0.0286
	c-0.0041,0.0026-0.0082,0.0047-0.0126,0.0069c-0.01,0.0052-0.0189,0.0092-0.0281,0.0124c-0.0052,0.0018-0.0104,0.0033-0.0155,0.0047
	c-0.0092,0.0024-0.0187,0.0042-0.029,0.0055C9.1875,10.6236,9.1838,10.624,9.18,10.6243c-0.0042,0.0005-0.0085,0.0007-0.0127,0.0007
	c-0.0082,0-0.0163-0.0005-0.0243-0.0015H3.3514V10.6236z M14.1475,12.6702c0,0.0547-0.0214,0.1063-0.0601,0.145l-1.2573,1.2574
	c-0.0136,0.0136-0.0295,0.0251-0.0485,0.0353c-0.0302,0.0161-0.0635,0.0246-0.0964,0.0246h-5.804
	c-0.0308,0-0.0611-0.0071-0.0899-0.0212c-0.0211-0.0103-0.0397-0.0234-0.0551-0.0388L5.479,12.8154
	c-0.0173-0.0173-0.0313-0.0372-0.0415-0.0594c-0.0055-0.0094-0.0091-0.0178-0.0117-0.0239l-0.0015-0.0034
	c-0.0028-0.0063-0.007-0.016-0.0102-0.028c-0.0033-0.0122-0.0077-0.031-0.0077-0.0529v-0.2665c0-0.113,0.092-0.205,0.205-0.205
	h1.0058c0.0547,0,0.1063,0.0214,0.145,0.0601l0.5683,0.5683h4.905l0.2085-0.2085l0.2874-0.2874V7.5869l-0.496-0.496H7.3313
	L6.763,7.6666c-0.0036,0.0036-0.0073,0.0068-0.0114,0.01C6.7373,7.6891,6.7215,7.6995,6.7047,7.7074
	c-0.0281,0.0133-0.0574,0.02-0.0874,0.02H5.6115c-0.0653,0-0.1273-0.0317-0.1658-0.0849C5.4201,7.607,5.4065,7.5655,5.4065,7.5223
	V7.2364c0-0.0547,0.0214-0.1063,0.0601-0.145l0.6286-0.6286l0.6287-0.6287L6.724,5.834c0.0106-0.0105,0.0224-0.0198,0.0364-0.0285
	C6.7644,5.803,6.7686,5.8008,6.773,5.7986c0.01-0.0052,0.0189-0.0092,0.0281-0.0124c0.0052-0.0018,0.0103-0.0033,0.0155-0.0047
	c0.0092-0.0024,0.0187-0.0042,0.029-0.0055c0.0036-0.0003,0.0073-0.0007,0.011-0.001c0.0043-0.0005,0.0085-0.0007,0.0127-0.0007
	c0.0082,0,0.0163,0.0005,0.0243,0.0015h5.7916c0.0547,0,0.1063,0.0214,0.145,0.0601l0.6286,0.6287l0.6286,0.6286
	c0.0095,0.0095,0.0182,0.0201,0.0256,0.0312c0.0149,0.0224,0.0252,0.0472,0.0305,0.0737c0.0026,0.0132,0.0039,0.0267,0.0039,0.0401
	L14.1475,12.6702L14.1475,12.6702z"/>
</svg>
